<?xml version="1.0" encoding="UTF-8"?>
<svg width="422px" height="514px" viewBox="0 0 422 514" version="1.1" xmlns="http://www.w3.org/2000/svg" xmlns:xlink="http://www.w3.org/1999/xlink">
    <title>Untitled</title>
    <g id="Page-1" stroke="none" stroke-width="1" fill="none" fill-rule="evenodd">
        <g id="NFT" transform="translate(0.500000, 0.500000)" fill-rule="nonzero" stroke="#000000">
            <path d="M20.92,220.5 L20.92,116.546 L130.475,220.862 L130.62,221 L140.92,221 L140.92,40 L119.76,40 L119.76,143.501 L10.203,40.136 L10.059,40 L0,40 L0,221 L20.92,221 L20.92,220.5 Z M260.42,141.08 L260.92,141.08 L260.92,119.92 L220.84,119.92 L220.84,60.92 L280.84,60.92 L280.84,40 L180,40 L180,221 L220.84,221 L220.84,141.08 L260.42,141.08 Z M420.762,40.5 L420.762,40 L299.762,40 L299.762,60.92 L339.842,60.92 L339.842,221 L380.682,221 L380.682,60.92 L420.762,60.92 L420.762,60.42 L420.762,40.5 Z" id="Shape" fill="#F5C32C"></path>
            <path d="M20.92,210.5 L20.92,106.546 L130.475,210.862 L130.62,211 L140.92,211 L140.92,30 L119.76,30 L119.76,133.501 L10.203,30.136 L10.059,30 L0,30 L0,211 L20.92,211 L20.92,210.5 Z M260.42,131.08 L260.92,131.08 L260.92,109.92 L220.84,109.92 L220.84,50.92 L280.84,50.92 L280.84,30 L180,30 L180,211 L220.84,211 L220.84,131.08 L260.42,131.08 Z M420.762,30.5 L420.762,30 L299.762,30 L299.762,50.92 L339.842,50.92 L339.842,211 L380.682,211 L380.682,50.92 L420.762,50.92 L420.762,50.42 L420.762,30.5 Z" id="Shape" fill="#F5C32C"></path>
            <path d="M20.92,200.5 L20.92,96.546 L130.475,200.862 L130.62,201 L140.92,201 L140.92,20 L119.76,20 L119.76,123.501 L10.203,20.136 L10.059,20 L0,20 L0,201 L20.92,201 L20.92,200.5 Z M260.42,121.08 L260.92,121.08 L260.92,99.92 L220.84,99.92 L220.84,40.92 L280.84,40.92 L280.84,20 L180,20 L180,201 L220.84,201 L220.84,121.08 L260.42,121.08 Z M420.762,20.5 L420.762,20 L299.762,20 L299.762,40.92 L339.842,40.92 L339.842,201 L380.682,201 L380.682,40.92 L420.762,40.92 L420.762,40.42 L420.762,20.5 Z" id="Shape" fill="#F5C32C"></path>
            <path d="M20.92,190.5 L20.92,86.546 L130.475,190.862 L130.62,191 L140.92,191 L140.92,10 L119.76,10 L119.76,113.501 L10.203,10.136 L10.059,10 L0,10 L0,191 L20.92,191 L20.92,190.5 Z M260.42,111.08 L260.92,111.08 L260.92,89.92 L220.84,89.92 L220.84,30.92 L280.84,30.92 L280.84,10 L180,10 L180,191 L220.84,191 L220.84,111.08 L260.42,111.08 Z M420.762,10.5 L420.762,10 L299.762,10 L299.762,30.92 L339.842,30.92 L339.842,191 L380.682,191 L380.682,30.92 L420.762,30.92 L420.762,30.42 L420.762,10.5 Z" id="Shape" fill="#F5C32C"></path>
            <path d="M20.92,180.5 L20.92,76.546 L130.475,180.862 L130.62,181 L140.92,181 L140.92,0 L119.76,0 L119.76,103.501 L10.203,0.136 L10.059,0 L0,0 L0,181 L20.92,181 L20.92,180.5 Z M260.42,101.08 L260.92,101.08 L260.92,79.92 L220.84,79.92 L220.84,20.92 L280.84,20.92 L280.84,0 L180,0 L180,181 L220.84,181 L220.84,101.08 L260.42,101.08 Z M420.762,0.5 L420.762,0 L299.762,0 L299.762,20.92 L339.842,20.92 L339.842,181 L380.682,181 L380.682,20.92 L420.762,20.92 L420.762,20.42 L420.762,0.5 Z" id="Shape" fill="#FFFFFF"></path>
        </g>
        <g id="Up" transform="translate(1.940000, 259.250000)">
            <g id="P" transform="translate(178.000000, 40.000000)" fill="#F5C32C" fill-rule="nonzero" stroke="#000000">
                <path d="M47.31,95.19 L94.905,95.19 L94.905,23.655 L47.31,23.655 L47.31,95.19 Z M94.905,118.845 C94.905,118.845 79.04,118.845 47.31,118.845 L47.31,213.75 L0,213.75 L0,0 L94.905,0 C100.795,0 106.59,1.1875 112.29,3.5625 C117.99,5.9375 123.0725,9.2625 127.5375,13.5375 C132.0025,17.8125 135.565,22.8475 138.225,28.6425 C140.885,34.4375 142.215,40.755 142.215,47.595 L142.215,71.25 C142.215,77.14 140.98,82.935 138.51,88.635 C136.04,94.335 132.6675,99.4175 128.3925,103.8825 C124.1175,108.3475 119.13,111.9575 113.43,114.7125 C107.73,117.4675 101.555,118.845 94.905,118.845 Z" id="Shape"></path>
            </g>
            <g id="P" transform="translate(178.000000, 30.000000)" fill="#F5C32C" fill-rule="nonzero" stroke="#000000">
                <path d="M47.31,95.19 L94.905,95.19 L94.905,23.655 L47.31,23.655 L47.31,95.19 Z M94.905,118.845 C94.905,118.845 79.04,118.845 47.31,118.845 L47.31,213.75 L0,213.75 L0,0 L94.905,0 C100.795,0 106.59,1.1875 112.29,3.5625 C117.99,5.9375 123.0725,9.2625 127.5375,13.5375 C132.0025,17.8125 135.565,22.8475 138.225,28.6425 C140.885,34.4375 142.215,40.755 142.215,47.595 L142.215,71.25 C142.215,77.14 140.98,82.935 138.51,88.635 C136.04,94.335 132.6675,99.4175 128.3925,103.8825 C124.1175,108.3475 119.13,111.9575 113.43,114.7125 C107.73,117.4675 101.555,118.845 94.905,118.845 Z" id="Shape"></path>
            </g>
            <g id="P" transform="translate(178.000000, 20.000000)" fill="#F5C32C" fill-rule="nonzero" stroke="#000000">
                <path d="M47.31,95.19 L94.905,95.19 L94.905,23.655 L47.31,23.655 L47.31,95.19 Z M94.905,118.845 C94.905,118.845 79.04,118.845 47.31,118.845 L47.31,213.75 L0,213.75 L0,0 L94.905,0 C100.795,0 106.59,1.1875 112.29,3.5625 C117.99,5.9375 123.0725,9.2625 127.5375,13.5375 C132.0025,17.8125 135.565,22.8475 138.225,28.6425 C140.885,34.4375 142.215,40.755 142.215,47.595 L142.215,71.25 C142.215,77.14 140.98,82.935 138.51,88.635 C136.04,94.335 132.6675,99.4175 128.3925,103.8825 C124.1175,108.3475 119.13,111.9575 113.43,114.7125 C107.73,117.4675 101.555,118.845 94.905,118.845 Z" id="Shape"></path>
            </g>
            <g id="P" transform="translate(178.000000, 10.000000)" fill="#F5C32C" fill-rule="nonzero" stroke="#000000">
                <path d="M47.31,95.19 L94.905,95.19 L94.905,23.655 L47.31,23.655 L47.31,95.19 Z M94.905,118.845 C94.905,118.845 79.04,118.845 47.31,118.845 L47.31,213.75 L0,213.75 L0,0 L94.905,0 C100.795,0 106.59,1.1875 112.29,3.5625 C117.99,5.9375 123.0725,9.2625 127.5375,13.5375 C132.0025,17.8125 135.565,22.8475 138.225,28.6425 C140.885,34.4375 142.215,40.755 142.215,47.595 L142.215,71.25 C142.215,77.14 140.98,82.935 138.51,88.635 C136.04,94.335 132.6675,99.4175 128.3925,103.8825 C124.1175,108.3475 119.13,111.9575 113.43,114.7125 C107.73,117.4675 101.555,118.845 94.905,118.845 Z" id="Shape"></path>
            </g>
            <g id="P" transform="translate(178.000000, 0.000000)" fill="#FFFFFF" fill-rule="nonzero" stroke="#000000">
                <path d="M47.31,95.19 L94.905,95.19 L94.905,23.655 L47.31,23.655 L47.31,95.19 Z M94.905,118.845 C94.905,118.845 79.04,118.845 47.31,118.845 L47.31,213.75 L0,213.75 L0,0 L94.905,0 C100.795,0 106.59,1.1875 112.29,3.5625 C117.99,5.9375 123.0725,9.2625 127.5375,13.5375 C132.0025,17.8125 135.565,22.8475 138.225,28.6425 C140.885,34.4375 142.215,40.755 142.215,47.595 L142.215,71.25 C142.215,77.14 140.98,82.935 138.51,88.635 C136.04,94.335 132.6675,99.4175 128.3925,103.8825 C124.1175,108.3475 119.13,111.9575 113.43,114.7125 C107.73,117.4675 101.555,118.845 94.905,118.845 Z" id="Shape"></path>
            </g>
            <g id="U" transform="translate(-0.000000, 40.000000)" fill="#F5C32C" fill-rule="nonzero" stroke="#000000">
                <path d="M47.31,0 L47.31,190.095 L94.905,190.095 L94.905,0 L142.215,0 L142.215,165.585 C142.215,171.665 140.9325,177.6025 138.3675,183.3975 C135.8025,189.1925 132.335,194.3225 127.965,198.7875 C123.595,203.2525 118.465,206.8625 112.575,209.6175 C106.685,212.3725 100.415,213.75 93.765,213.75 L48.45,213.75 C41.8,213.75 35.53,212.3725 29.64,209.6175 C23.75,206.8625 18.62,203.2525 14.25,198.7875 C9.88,194.3225 6.4125,189.1925 3.8475,183.3975 C1.2825,177.6025 0,171.665 0,165.585 L0,0 L47.31,0 Z" id="Path"></path>
            </g>
            <g id="U" transform="translate(-0.000000, 30.000000)" fill="#F5C32C" fill-rule="nonzero" stroke="#000000">
                <path d="M47.31,0 L47.31,190.095 L94.905,190.095 L94.905,0 L142.215,0 L142.215,165.585 C142.215,171.665 140.9325,177.6025 138.3675,183.3975 C135.8025,189.1925 132.335,194.3225 127.965,198.7875 C123.595,203.2525 118.465,206.8625 112.575,209.6175 C106.685,212.3725 100.415,213.75 93.765,213.75 L48.45,213.75 C41.8,213.75 35.53,212.3725 29.64,209.6175 C23.75,206.8625 18.62,203.2525 14.25,198.7875 C9.88,194.3225 6.4125,189.1925 3.8475,183.3975 C1.2825,177.6025 0,171.665 0,165.585 L0,0 L47.31,0 Z" id="Path"></path>
            </g>
            <g id="U" transform="translate(-0.000000, 20.000000)" fill="#F5C32C" fill-rule="nonzero" stroke="#000000">
                <path d="M47.31,0 L47.31,190.095 L94.905,190.095 L94.905,0 L142.215,0 L142.215,165.585 C142.215,171.665 140.9325,177.6025 138.3675,183.3975 C135.8025,189.1925 132.335,194.3225 127.965,198.7875 C123.595,203.2525 118.465,206.8625 112.575,209.6175 C106.685,212.3725 100.415,213.75 93.765,213.75 L48.45,213.75 C41.8,213.75 35.53,212.3725 29.64,209.6175 C23.75,206.8625 18.62,203.2525 14.25,198.7875 C9.88,194.3225 6.4125,189.1925 3.8475,183.3975 C1.2825,177.6025 0,171.665 0,165.585 L0,0 L47.31,0 Z" id="Path"></path>
            </g>
            <g id="U" transform="translate(-0.000000, 10.000000)" fill="#F5C32C" fill-rule="nonzero" stroke="#000000">
                <path d="M47.31,0 L47.31,190.095 L94.905,190.095 L94.905,0 L142.215,0 L142.215,165.585 C142.215,171.665 140.9325,177.6025 138.3675,183.3975 C135.8025,189.1925 132.335,194.3225 127.965,198.7875 C123.595,203.2525 118.465,206.8625 112.575,209.6175 C106.685,212.3725 100.415,213.75 93.765,213.75 L48.45,213.75 C41.8,213.75 35.53,212.3725 29.64,209.6175 C23.75,206.8625 18.62,203.2525 14.25,198.7875 C9.88,194.3225 6.4125,189.1925 3.8475,183.3975 C1.2825,177.6025 0,171.665 0,165.585 L0,0 L47.31,0 Z" id="Path"></path>
            </g>
            <g id="U" transform="translate(-0.000000, 0.000000)" fill="#FFFFFF" fill-rule="nonzero" stroke="#000000">
                <path d="M47.31,0 L47.31,190.095 L94.905,190.095 L94.905,0 L142.215,0 L142.215,165.585 C142.215,171.665 140.9325,177.6025 138.3675,183.3975 C135.8025,189.1925 132.335,194.3225 127.965,198.7875 C123.595,203.2525 118.465,206.8625 112.575,209.6175 C106.685,212.3725 100.415,213.75 93.765,213.75 L48.45,213.75 C41.8,213.75 35.53,212.3725 29.64,209.6175 C23.75,206.8625 18.62,203.2525 14.25,198.7875 C9.88,194.3225 6.4125,189.1925 3.8475,183.3975 C1.2825,177.6025 0,171.665 0,165.585 L0,0 L47.31,0 Z" id="Path"></path>
            </g>
            <g id="Smile" transform="translate(209.060000, 15.750000)">
                <rect id="Rectangle" fill="#FFFFFF" x="0" y="0" width="81" height="90"></rect>
                <ellipse id="Oval" fill="#000000" fill-rule="nonzero" cx="27.5" cy="25" rx="3.5" ry="8"></ellipse>
                <ellipse id="Oval" fill="#000000" fill-rule="nonzero" cx="51.5" cy="25" rx="3.5" ry="8"></ellipse>
                <path d="M72,43 C72,60.6730256 57.897,75 40.5,75 C23.103,75 9,60.6730256 9,43" id="Path" stroke="#000000"></path>
            </g>
        </g>
    </g>
</svg>